<svg xmlns="http://www.w3.org/2000/svg" viewBox="0 0 197.4 34.13"><defs><style>.cls-1{fill:#ff783d;}</style></defs><title>Asset 14</title><g id="Layer_2" data-name="Layer 2"><g id="Layer_1-2" data-name="Layer 1"><path class="cls-1" d="M2.47,11.18H8.79c6.64,0,11,3.48,11,11.34S15.43,34.06,9.09,34.06H2.47Zm6,18.71c3.56,0,6-1.9,6-7.37s-2.42-7.17-6-7.17H7.65V29.89Z" transform="translate(-2.47)"/><path class="cls-1" d="M28.87,11.18H44v4.34h-10v4.59h8.48v4.34H34.05v5.27H44.39v4.34H28.87Z" transform="translate(-2.47)"/><path class="cls-1" d="M55,11.18h5.17V29.72H70.35v4.34H55Z" transform="translate(-2.47)"/><path class="cls-1" d="M79.48,29.72h5.34V15.52H79.48V11.18H95.34v4.34H90v14.2h5.34v4.34H79.48Z" transform="translate(-2.47)"/><path class="cls-1" d="M131.37,11.18h15.17v4.34h-10v4.59H145v4.34h-8.49v5.27h10.34v4.34H131.37Z" transform="translate(-2.47)"/><path class="cls-1" d="M156.19,11.18h8.14c4.84,0,8.83,1.69,8.83,7.13,0,5.26-4,7.52-8.83,7.52h-3v8.23h-5.19Zm7.72,10.54c2.72,0,4.17-1.17,4.17-3.41s-1.45-3-4.17-3h-2.53v6.43Zm3.05-.57,7.3,12.91h-5.79l-5.09-9.59Z" transform="translate(-2.47)"/><path class="cls-1" d="M187.32,26.33,180,11.18h5.54l2.32,5.5c.68,1.76,1.36,3.42,2.08,5.24H190c.71-1.82,1.44-3.48,2.14-5.24l2.3-5.5h5.4L192.5,26.33v7.73h-5.18Z" transform="translate(-2.47)"/><path class="cls-1" d="M116,0a12.56,12.56,0,0,0-8,2.84,1.7,1.7,0,0,1-.81.36,6.34,6.34,0,0,0-3.43,1.86l-2.15,2.09L97.85,11c-.23.23-.29.54-.12.68s.45,0,.66-.16l3.19-3.19c.33-.33.78-.42,1-.2s.13.67-.2,1l-3.19,3.18c-.21.22-.29.51-.16.67s.45.11.68-.12l3.2-3.2c.33-.33.78-.42,1-.2h0c.22.22.13.67-.2,1l-3.19,3.19c-.21.21-.29.5-.16.66s.45.11.68-.12l3.2-3.2c.33-.33.78-.42,1-.2h0c.22.22.13.67-.2,1l-3.19,3.19c-.21.21-.29.5-.16.66s.45.11.68-.12l3.8-3.8,2.16-2.09a7.8,7.8,0,0,0,1.82-3.83,1.67,1.67,0,0,1,.72-1.09A9.41,9.41,0,0,1,116,3.14a9.51,9.51,0,0,1,9.5,9.49c0,1.25-.69,4.39-5.27,11.38-.55.85-1.11,1.67-1.65,2.44a3.14,3.14,0,0,1-5.15,0c-1-1.45-2.11-3.09-3.12-4.76a1.57,1.57,0,0,0-2.69,1.63,108.74,108.74,0,0,0,7.16,10.22,1.53,1.53,0,0,0,1.22.59,1.55,1.55,0,0,0,1.23-.59c.11-.14,2.84-3.56,5.62-7.79,3.89-5.94,5.79-10.23,5.79-13.12A12.65,12.65,0,0,0,116,0Z" transform="translate(-2.47)"/><path class="cls-1" d="M116,17.85a6,6,0,1,1,6-6A6,6,0,0,1,116,17.85Zm0-8.8a2.83,2.83,0,1,0,2.83,2.83A2.83,2.83,0,0,0,116,9.05Z" transform="translate(-2.47)"/></g></g></svg>