<svg id="_005-twitter" data-name="005-twitter" xmlns="http://www.w3.org/2000/svg" width="33.553" height="27.262" viewBox="0 0 33.553 27.262">
  <g id="Group_172" data-name="Group 172" transform="translate(0 0)">
    <path id="Path_204" data-name="Path 204" d="M33.553,51.227a14.341,14.341,0,0,1-3.963,1.086,6.84,6.84,0,0,0,3.026-3.8,13.747,13.747,0,0,1-4.362,1.665,6.878,6.878,0,0,0-11.9,4.7,7.083,7.083,0,0,0,.159,1.569A19.47,19.47,0,0,1,2.336,49.254,6.88,6.88,0,0,0,4.45,58.447,6.793,6.793,0,0,1,1.342,57.6v.075a6.91,6.91,0,0,0,5.511,6.759,6.865,6.865,0,0,1-1.8.226,6.082,6.082,0,0,1-1.3-.117,6.944,6.944,0,0,0,6.427,4.792,13.821,13.821,0,0,1-8.529,2.934A12.884,12.884,0,0,1,0,72.175a19.365,19.365,0,0,0,10.552,3.087c12.658,0,19.578-10.485,19.578-19.574,0-.3-.01-.6-.025-.889A13.722,13.722,0,0,0,33.553,51.227Z" transform="translate(0 -48)" fill="#fff"/>
  </g>
</svg>
