<svg id="Download_on_the_App_Store_Badge" xmlns="http://www.w3.org/2000/svg" width="135.241" height="40.071" viewBox="0 0 135.241 40.071">
  <path id="Path_142" data-name="Path 142" d="M130.43,40.071H4.737A4.748,4.748,0,0,1,0,35.33V4.734A4.742,4.742,0,0,1,4.737,0H130.43a4.806,4.806,0,0,1,4.812,4.734v30.6a4.813,4.813,0,0,1-4.812,4.741Z"/>
  <path id="Path_143" data-name="Path 143" d="M134.27,35.329a3.837,3.837,0,0,1-3.841,3.837H4.736A3.842,3.842,0,0,1,.89,35.329V4.732A3.847,3.847,0,0,1,4.736.89H130.428a3.841,3.841,0,0,1,3.841,3.842v30.6Z" transform="translate(0.002 0.002)"/>
  <g id="Group_140" data-name="Group 140" transform="translate(12.815 6.228)">
    <g id="Group_139" data-name="Group 139">
      <path id="Path_144" data-name="Path 144" d="M30.159,19.8a5.807,5.807,0,0,1,2.766-4.873,5.948,5.948,0,0,0-4.684-2.533c-1.971-.207-3.882,1.179-4.886,1.179-1.024,0-2.57-1.159-4.236-1.125a6.237,6.237,0,0,0-5.249,3.2c-2.27,3.93-.577,9.705,1.6,12.882,1.088,1.556,2.359,3.293,4.023,3.232,1.628-.067,2.236-1.038,4.2-1.038,1.946,0,2.517,1.038,4.215,1,1.747-.028,2.847-1.563,3.9-3.133a12.855,12.855,0,0,0,1.782-3.629A5.614,5.614,0,0,1,30.159,19.8Z" transform="translate(-12.792 -6.206)" fill="#fff"/>
      <path id="Path_145" data-name="Path 145" d="M26.935,10.313a5.716,5.716,0,0,0,1.308-4.1,5.823,5.823,0,0,0-3.765,1.947,5.44,5.44,0,0,0-1.342,3.945A4.809,4.809,0,0,0,26.935,10.313Z" transform="translate(-12.773 -6.217)" fill="#fff"/>
    </g>
  </g>
  <g id="Group_141" data-name="Group 141" transform="translate(42.486 18.033)">
    <path id="Path_146" data-name="Path 146" d="M53.665,31.528H51.39l-1.246-3.916H45.812l-1.187,3.916H42.41L46.7,18.2h2.651Zm-3.9-5.559-1.127-3.481q-.179-.533-.672-2.511h-.04q-.2.851-.633,2.511l-1.107,3.481Z" transform="translate(-42.41 -18.001)" fill="#fff"/>
    <path id="Path_147" data-name="Path 147" d="M64.679,26.6a5.463,5.463,0,0,1-1.325,3.876,3.875,3.875,0,0,1-2.947,1.266,2.947,2.947,0,0,1-2.73-1.364h-.04v5.064H55.5V25.073q0-1.542-.079-3.165H57.3l.119,1.524h.04a3.8,3.8,0,0,1,6.082-.377A5.3,5.3,0,0,1,64.679,26.6Zm-2.176.078a3.958,3.958,0,0,0-.633-2.314,2.187,2.187,0,0,0-1.859-.95,2.221,2.221,0,0,0-1.434.524,2.43,2.43,0,0,0-.84,1.375,2.8,2.8,0,0,0-.1.651v1.6a2.568,2.568,0,0,0,.643,1.771,2.132,2.132,0,0,0,1.671.722,2.187,2.187,0,0,0,1.878-.93A4.092,4.092,0,0,0,62.5,26.675Z" transform="translate(-42.387 -17.994)" fill="#fff"/>
    <path id="Path_148" data-name="Path 148" d="M75.715,26.6a5.459,5.459,0,0,1-1.326,3.876,3.872,3.872,0,0,1-2.946,1.266,2.944,2.944,0,0,1-2.729-1.364h-.04v5.064H66.538V25.073q0-1.542-.079-3.165h1.878l.119,1.524h.04a3.8,3.8,0,0,1,6.083-.377A5.311,5.311,0,0,1,75.715,26.6Zm-2.176.078a3.958,3.958,0,0,0-.634-2.314,2.184,2.184,0,0,0-1.858-.95,2.224,2.224,0,0,0-1.435.524,2.429,2.429,0,0,0-.839,1.375,2.851,2.851,0,0,0-.1.651v1.6a2.576,2.576,0,0,0,.641,1.771,2.136,2.136,0,0,0,1.673.722,2.187,2.187,0,0,0,1.878-.93A4.092,4.092,0,0,0,73.54,26.675Z" transform="translate(-42.367 -17.994)" fill="#fff"/>
    <path id="Path_149" data-name="Path 149" d="M88.054,27.789a3.553,3.553,0,0,1-1.184,2.769,5.248,5.248,0,0,1-3.631,1.167,6.357,6.357,0,0,1-3.455-.83l.495-1.78a5.855,5.855,0,0,0,3.088.852,2.919,2.919,0,0,0,1.88-.545,1.78,1.78,0,0,0,.671-1.457,1.857,1.857,0,0,0-.554-1.366,5.15,5.15,0,0,0-1.839-1.031q-3.5-1.306-3.5-3.823a3.383,3.383,0,0,1,1.227-2.694A4.838,4.838,0,0,1,84.514,18a6.471,6.471,0,0,1,3.025.633l-.534,1.741a5.249,5.249,0,0,0-2.552-.613,2.583,2.583,0,0,0-1.759.554,1.583,1.583,0,0,0-.534,1.207,1.629,1.629,0,0,0,.612,1.305,6.918,6.918,0,0,0,1.939,1.029,6.58,6.58,0,0,1,2.532,1.621A3.386,3.386,0,0,1,88.054,27.789Z" transform="translate(-42.343 -18.001)" fill="#fff"/>
    <path id="Path_150" data-name="Path 150" d="M95.1,23.515H92.744v4.667q0,1.781,1.246,1.78a3.8,3.8,0,0,0,.949-.1L95,31.485a4.839,4.839,0,0,1-1.661.236,2.563,2.563,0,0,1-1.979-.771,3.789,3.789,0,0,1-.712-2.592V23.513h-1.4v-1.6h1.4V20.15l2.1-.633V21.91H95.1v1.6Z" transform="translate(-42.326 -17.998)" fill="#fff"/>
    <path id="Path_151" data-name="Path 151" d="M105.708,26.636a5.273,5.273,0,0,1-1.266,3.639,4.521,4.521,0,0,1-3.522,1.464,4.3,4.3,0,0,1-3.371-1.4,5.112,5.112,0,0,1-1.256-3.54,5.222,5.222,0,0,1,1.3-3.659,4.483,4.483,0,0,1,3.49-1.425,4.39,4.39,0,0,1,3.4,1.4A5.054,5.054,0,0,1,105.708,26.636Zm-2.216.069a4.324,4.324,0,0,0-.573-2.281A2.11,2.11,0,0,0,101,23.274a2.142,2.142,0,0,0-1.958,1.15,4.407,4.407,0,0,0-.573,2.321,4.318,4.318,0,0,0,.573,2.28A2.183,2.183,0,0,0,102.9,29,4.34,4.34,0,0,0,103.492,26.7Z" transform="translate(-42.314 -17.994)" fill="#fff"/>
    <path id="Path_152" data-name="Path 152" d="M112.63,23.787a3.708,3.708,0,0,0-.673-.059,2.018,2.018,0,0,0-1.741.852,3.2,3.2,0,0,0-.534,1.9v5.044h-2.135l.02-6.586q0-1.662-.08-3.026h1.86l.078,1.839h.059a3.287,3.287,0,0,1,1.068-1.523,2.582,2.582,0,0,1,1.544-.515,3.429,3.429,0,0,1,.534.039v2.037Z" transform="translate(-42.294 -17.994)" fill="#fff"/>
    <path id="Path_153" data-name="Path 153" d="M122.171,26.26a5.009,5.009,0,0,1-.078.969h-6.407a2.789,2.789,0,0,0,.93,2.177,3.174,3.174,0,0,0,2.1.672,7.087,7.087,0,0,0,2.593-.455l.335,1.483a8.015,8.015,0,0,1-3.223.594,4.669,4.669,0,0,1-3.512-1.315,4.858,4.858,0,0,1-1.275-3.53,5.507,5.507,0,0,1,1.188-3.619,4.093,4.093,0,0,1,3.361-1.542,3.582,3.582,0,0,1,3.147,1.542A5.2,5.2,0,0,1,122.171,26.26Zm-2.037-.554a2.9,2.9,0,0,0-.415-1.642,1.866,1.866,0,0,0-1.7-.891,2.026,2.026,0,0,0-1.7.871,3.187,3.187,0,0,0-.632,1.661h4.449Z" transform="translate(-42.283 -17.994)" fill="#fff"/>
  </g>
  <g id="Group_143" data-name="Group 143" transform="translate(43.754 6.568)">
    <g id="Group_142" data-name="Group 142">
      <path id="Path_154" data-name="Path 154" d="M49.06,10.015A3.289,3.289,0,0,1,48,12.677a4.216,4.216,0,0,1-2.788.825,12.926,12.926,0,0,1-1.536-.078V6.982a11.333,11.333,0,0,1,1.808-.136,3.9,3.9,0,0,1,2.595.748A3.024,3.024,0,0,1,49.06,10.015Zm-1.107.029a2.394,2.394,0,0,0-.607-1.759,2.393,2.393,0,0,0-1.774-.612,4.443,4.443,0,0,0-.846.068v4.9a5.543,5.543,0,0,0,.709.029A2.483,2.483,0,0,0,47.3,12,2.684,2.684,0,0,0,47.953,10.044Z" transform="translate(-43.676 -6.555)" fill="#fff"/>
      <path id="Path_155" data-name="Path 155" d="M54.917,11.041a2.59,2.59,0,0,1-.622,1.788,2.22,2.22,0,0,1-1.73.719,2.11,2.11,0,0,1-1.657-.69,2.514,2.514,0,0,1-.616-1.739,2.565,2.565,0,0,1,.636-1.8,2.206,2.206,0,0,1,1.715-.7,2.16,2.16,0,0,1,1.672.689A2.493,2.493,0,0,1,54.917,11.041Zm-1.089.034a2.136,2.136,0,0,0-.281-1.121,1.037,1.037,0,0,0-.942-.565,1.053,1.053,0,0,0-.963.565,2.164,2.164,0,0,0-.282,1.14,2.136,2.136,0,0,0,.282,1.121,1.06,1.06,0,0,0,.953.565,1.048,1.048,0,0,0,.942-.575A2.122,2.122,0,0,0,53.828,11.075Z" transform="translate(-43.664 -6.552)" fill="#fff"/>
      <path id="Path_156" data-name="Path 156" d="M62.777,8.719,61.3,13.441h-.962l-.612-2.051a15.349,15.349,0,0,1-.38-1.526h-.019a11.17,11.17,0,0,1-.38,1.526l-.65,2.051h-.973L55.935,8.719h1.079l.534,2.245q.194.8.321,1.516h.019q.117-.592.39-1.506l.67-2.254H59.8l.642,2.206q.233.807.379,1.555h.029a14.853,14.853,0,0,1,.321-1.555l.573-2.206h1.031Z" transform="translate(-43.654 -6.552)" fill="#fff"/>
      <path id="Path_157" data-name="Path 157" d="M68.205,13.442h-1.05v-2.7q0-1.25-.952-1.25a.947.947,0,0,0-.758.344,1.219,1.219,0,0,0-.292.809v2.8H64.1V10.069q0-.622-.038-1.351h.923l.049.738h.029a1.517,1.517,0,0,1,.544-.57,1.774,1.774,0,0,1,.952-.265,1.507,1.507,0,0,1,1.1.428,2.078,2.078,0,0,1,.544,1.565Z" transform="translate(-43.64 -6.552)" fill="#fff"/>
      <path id="Path_158" data-name="Path 158" d="M71.09,13.445H70.041V6.556H71.09Z" transform="translate(-43.629 -6.556)" fill="#fff"/>
      <path id="Path_159" data-name="Path 159" d="M77.266,11.041a2.59,2.59,0,0,1-.622,1.788,2.222,2.222,0,0,1-1.73.719,2.108,2.108,0,0,1-1.657-.69,2.514,2.514,0,0,1-.616-1.739,2.565,2.565,0,0,1,.636-1.8,2.206,2.206,0,0,1,1.714-.7,2.162,2.162,0,0,1,1.673.689A2.493,2.493,0,0,1,77.266,11.041Zm-1.09.034a2.136,2.136,0,0,0-.282-1.121,1.035,1.035,0,0,0-.941-.565,1.051,1.051,0,0,0-.963.565,2.164,2.164,0,0,0-.282,1.14,2.136,2.136,0,0,0,.282,1.121,1.06,1.06,0,0,0,.953.565,1.046,1.046,0,0,0,.941-.575A2.113,2.113,0,0,0,76.176,11.075Z" transform="translate(-43.624 -6.552)" fill="#fff"/>
      <path id="Path_160" data-name="Path 160" d="M82.337,13.442h-.943l-.078-.544h-.029a1.617,1.617,0,0,1-1.379.651,1.424,1.424,0,0,1-1.078-.428,1.341,1.341,0,0,1-.37-.962,1.467,1.467,0,0,1,.724-1.321,3.759,3.759,0,0,1,2.037-.447V10.3q0-.933-.981-.933a2.2,2.2,0,0,0-1.231.35L78.8,9.031a3.028,3.028,0,0,1,1.62-.408q1.851,0,1.853,1.953v1.739A7.375,7.375,0,0,0,82.337,13.442Zm-1.09-1.623V11.09q-1.737-.03-1.737.952a.711.711,0,0,0,.2.554.734.734,0,0,0,.513.184,1.06,1.06,0,0,0,.642-.218.9.9,0,0,0,.381-.743Z" transform="translate(-43.614 -6.552)" fill="#fff"/>
      <path id="Path_161" data-name="Path 161" d="M88.293,13.445h-.932l-.049-.758h-.029a1.57,1.57,0,0,1-1.517.866,1.777,1.777,0,0,1-1.419-.67,2.611,2.611,0,0,1-.563-1.739A2.738,2.738,0,0,1,84.4,9.287a1.882,1.882,0,0,1,1.458-.661,1.415,1.415,0,0,1,1.33.641h.02V6.556h1.051v5.617Q88.256,12.863,88.293,13.445Zm-1.088-1.992v-.787a1.546,1.546,0,0,0-.029-.331A1.2,1.2,0,0,0,86.8,9.7a1.032,1.032,0,0,0-.7-.257,1.077,1.077,0,0,0-.924.467,2,2,0,0,0-.337,1.2,1.865,1.865,0,0,0,.323,1.137,1.081,1.081,0,0,0,.918.466,1.012,1.012,0,0,0,.829-.389A1.294,1.294,0,0,0,87.205,11.454Z" transform="translate(-43.604 -6.556)" fill="#fff"/>
      <path id="Path_162" data-name="Path 162" d="M97.256,11.041a2.59,2.59,0,0,1-.622,1.788,2.219,2.219,0,0,1-1.73.719,2.113,2.113,0,0,1-1.657-.69,2.514,2.514,0,0,1-.616-1.739,2.565,2.565,0,0,1,.636-1.8,2.207,2.207,0,0,1,1.716-.7,2.158,2.158,0,0,1,1.671.689A2.493,2.493,0,0,1,97.256,11.041Zm-1.088.034a2.136,2.136,0,0,0-.281-1.121,1.038,1.038,0,0,0-.943-.565,1.055,1.055,0,0,0-.963.565,2.164,2.164,0,0,0-.282,1.14,2.136,2.136,0,0,0,.282,1.121,1.073,1.073,0,0,0,1.9-.01A2.131,2.131,0,0,0,96.168,11.075Z" transform="translate(-43.589 -6.552)" fill="#fff"/>
      <path id="Path_163" data-name="Path 163" d="M102.89,13.442h-1.049v-2.7q0-1.25-.953-1.25a.944.944,0,0,0-.757.344,1.214,1.214,0,0,0-.292.809v2.8H98.789V10.069q0-.622-.037-1.351h.922l.049.738h.029a1.532,1.532,0,0,1,.544-.57,1.778,1.778,0,0,1,.953-.265,1.506,1.506,0,0,1,1.1.428,2.075,2.075,0,0,1,.544,1.565Z" transform="translate(-43.578 -6.552)" fill="#fff"/>
      <path id="Path_164" data-name="Path 164" d="M109.941,9.507h-1.156V11.8c0,.583.205.875.612.875a1.849,1.849,0,0,0,.468-.049l.027.8a2.359,2.359,0,0,1-.815.117,1.255,1.255,0,0,1-.971-.379,1.852,1.852,0,0,1-.351-1.273V9.507h-.69V8.721h.69V7.856l1.029-.311V8.72h1.156v.787Z" transform="translate(-43.563 -6.554)" fill="#fff"/>
      <path id="Path_165" data-name="Path 165" d="M115.491,13.445H114.44V10.76q0-1.27-.951-1.27a1,1,0,0,0-1,.736,1.319,1.319,0,0,0-.049.378v2.84H111.39V6.556h1.049V9.4h.02a1.587,1.587,0,0,1,1.419-.776,1.463,1.463,0,0,1,1.08.428,2.151,2.151,0,0,1,.534,1.584v2.808Z" transform="translate(-43.555 -6.556)" fill="#fff"/>
      <path id="Path_166" data-name="Path 166" d="M121.214,10.857a2.535,2.535,0,0,1-.039.476h-3.149a1.377,1.377,0,0,0,.456,1.069,1.564,1.564,0,0,0,1.031.331,3.478,3.478,0,0,0,1.273-.223l.164.729a3.954,3.954,0,0,1-1.585.292,2.289,2.289,0,0,1-1.724-.646,2.38,2.38,0,0,1-.626-1.734,2.7,2.7,0,0,1,.583-1.778,2.008,2.008,0,0,1,1.651-.757,1.756,1.756,0,0,1,1.544.757A2.521,2.521,0,0,1,121.214,10.857Zm-1-.271a1.413,1.413,0,0,0-.2-.806.917.917,0,0,0-.835-.438,1,1,0,0,0-.835.428,1.589,1.589,0,0,0-.312.816h2.186Z" transform="translate(-43.545 -6.552)" fill="#fff"/>
    </g>
  </g>
</svg>
