<svg xmlns="http://www.w3.org/2000/svg" width="33.553" height="33.553" viewBox="0 0 33.553 33.553">
  <path id="Path_203" data-name="Path 203" d="M31.7,0H1.852A1.852,1.852,0,0,0,0,1.853V31.7a1.853,1.853,0,0,0,1.852,1.853H17.921V20.56H13.549V15.5h4.372V11.761c0-4.333,2.646-6.694,6.512-6.694a36.265,36.265,0,0,1,3.907.2V9.8H25.658c-2.1,0-2.508,1-2.508,2.465v3.233h5.015l-.656,5.064H23.15V33.552H31.7A1.854,1.854,0,0,0,33.553,31.7V1.852A1.852,1.852,0,0,0,31.7,0Z" transform="translate(0 -0.001)" fill="#fff"/>
</svg>
