<svg xmlns="http://www.w3.org/2000/svg" viewBox="0 0 493.55 543"><defs><style>.cls-1{fill:#FF783D;}</style></defs><title>Logo IconAsset 12</title><g id="Layer_2" data-name="Layer 2"><g id="Layer_1-2" data-name="Layer 1"><path class="cls-1" d="M292.55,0a200.08,200.08,0,0,0-127,45.25,26.33,26.33,0,0,1-12.82,5.59c-18.56,2.76-38.41,13.44-54.55,29.59L63.87,113.68,3.41,174.14C-.24,177.8-1.13,182.78,1.58,185c2.47,2,7.13.77,10.52-2.62L62.79,131.7c5.28-5.27,12.39-6.7,15.9-3.19s2.08,10.62-3.19,15.89L24.8,195.1c-3.39,3.39-4.64,8.05-2.61,10.52,2.23,2.71,7.21,1.82,10.87-1.83L84,152.87c5.27-5.27,12.39-6.7,15.9-3.19h0c3.51,3.51,2.08,10.63-3.19,15.9L46,216.28c-3.39,3.39-4.65,8.05-2.61,10.52,2.22,2.7,7.21,1.82,10.86-1.84l50.92-50.91c5.27-5.27,12.39-6.7,15.9-3.19h0c3.5,3.51,2.07,10.63-3.2,15.9L67.16,237.45c-3.39,3.39-4.65,8.05-2.62,10.52,2.23,2.71,7.22,1.83,10.87-1.83l60.46-60.46,34.26-33.25c14.92-14.93,25.27-40.77,29-60.91A26.22,26.22,0,0,1,210.53,74.2a150.26,150.26,0,0,1,82-24.2c83.26,0,151,67.74,151,151,0,19.87-10.87,69.8-83.7,180.92-8.86,13.53-17.75,26.58-26.28,38.79-19.91,28.49-62.07,28.56-82,.07C235.48,397.72,218.07,371.63,202,345A25,25,0,1,0,159.19,371C209.78,454.4,270.48,530.43,273,533.63a25,25,0,0,0,39,0c1.82-2.29,45.25-56.65,89.39-124,62-94.5,92.09-162.76,92.09-208.66C493.55,90.17,403.38,0,292.55,0Z"/><path class="cls-1" d="M292.55,284a95,95,0,1,1,95-95A95.11,95.11,0,0,1,292.55,284Zm0-140a45,45,0,1,0,45,45A45.05,45.05,0,0,0,292.55,144Z"/></g></g></svg>