<svg id="_002-instagram" data-name="002-instagram" xmlns="http://www.w3.org/2000/svg" width="33.912" height="33.918" viewBox="0 0 33.912 33.918">
  <path id="Path_200" data-name="Path 200" d="M34.274,9.972a12.394,12.394,0,0,0-.788-4.115A8.689,8.689,0,0,0,28.523.895,12.426,12.426,0,0,0,24.408.106C22.593.02,22.016,0,17.411,0s-5.181.02-6.99.1A12.4,12.4,0,0,0,6.306.888,8.276,8.276,0,0,0,3.3,2.849a8.351,8.351,0,0,0-1.955,3A12.427,12.427,0,0,0,.555,9.965c-.086,1.816-.106,2.392-.106,7s.02,5.181.1,6.99a12.393,12.393,0,0,0,.789,4.115A8.687,8.687,0,0,0,6.3,33.031a12.427,12.427,0,0,0,4.115.788c1.809.08,2.385.1,6.99.1s5.181-.02,6.99-.1a12.391,12.391,0,0,0,4.115-.788,8.676,8.676,0,0,0,4.963-4.963,12.435,12.435,0,0,0,.788-4.115c.079-1.809.1-2.385.1-6.99s-.007-5.181-.086-6.99ZM31.22,23.821a9.3,9.3,0,0,1-.583,3.147,5.627,5.627,0,0,1-3.22,3.22,9.33,9.33,0,0,1-3.147.583c-1.789.08-2.326.1-6.851.1s-5.069-.02-6.851-.1a9.292,9.292,0,0,1-3.147-.583,5.219,5.219,0,0,1-1.948-1.266,5.273,5.273,0,0,1-1.266-1.948,9.331,9.331,0,0,1-.583-3.147c-.08-1.789-.1-2.326-.1-6.851s.02-5.069.1-6.851a9.292,9.292,0,0,1,.583-3.147A5.155,5.155,0,0,1,5.478,5.029,5.265,5.265,0,0,1,7.426,3.764a9.336,9.336,0,0,1,3.147-.583c1.789-.079,2.326-.1,6.851-.1s5.069.02,6.851.1a9.3,9.3,0,0,1,3.147.583,5.215,5.215,0,0,1,1.948,1.265,5.272,5.272,0,0,1,1.266,1.948,9.335,9.335,0,0,1,.583,3.147c.079,1.789.1,2.326.1,6.851s-.02,5.056-.1,6.845Zm0,0" transform="translate(-0.449 0)" fill="#fff"/>
  <path id="Path_201" data-name="Path 201" d="M133.662,124.5a8.713,8.713,0,1,0,8.713,8.713A8.715,8.715,0,0,0,133.662,124.5Zm0,14.365a5.652,5.652,0,1,1,5.652-5.652A5.653,5.653,0,0,1,133.662,138.865Zm0,0" transform="translate(-116.7 -116.251)" fill="#fff"/>
  <path id="Path_202" data-name="Path 202" d="M366.518,90.636a2.034,2.034,0,1,1-2.034-2.034A2.034,2.034,0,0,1,366.518,90.636Zm0,0" transform="translate(-338.464 -82.731)" fill="#fff"/>
</svg>
